{
  "accessors": [
    {
      "bufferView": 2,
      "componentType": 5126,
      "count": 64,
      "max": [
        9.1577367782592773,
        32.805568695068359,
        9.1577367782592773
      ],
      "min": [
        -9.1577367782592773,
        10.903591156005859,
        -9.1577367782592773
      ],
      "type": "VEC3"
    },
    {
      "bufferView": 2,
      "byteOffset": 768,
      "componentType": 5126,
      "count": 64,
      "max": [
        0.77028101682662964,
        1,
        0.77028107643127441
      ],
      "min": [
        -0.77028101682662964,
        -1,
        -0.77028107643127441
      ],
      "type": "VEC3"
    },
    {
      "bufferView": 3,
      "componentType": 5126,
      "count": 64,
      "max": [
        -0.63770467042922974,
        0.77028095722198486,
        2.3229165890370496e-05,
        1
      ],
      "min": [
        -1,
        -0.77028107643127441,
        -2.5348479539388791e-05,
        1
      ],
      "type": "VEC4"
    },
    {
      "bufferView": 1,
      "componentType": 5126,
      "count": 64,
      "max": [
        0.99425601959228516,
        0.99549269676208496
      ],
      "min": [
        -0.99549257755279541,
        0.0045073032379150391
      ],
      "type": "VEC2"
    },
    {
      "bufferView": 0,
      "componentType": 5125,
      "count": 84,
      "max": [
        63
      ],
      "min": [
        0
      ],
      "type": "SCALAR"
    }
  ],
  "asset": {
    "extras": {
      "author": "ENOMIC (https://sketchfab.com/ENOMIC)",
      "license": "CC-BY-NC-SA-4.0 (http://creativecommons.org/licenses/by-nc-sa/4.0/)",
      "source": "https://sketchfab.com/3d-models/prism-stone-magical-energy-stone-762cf8072c5a44a0bb6d4fe68c56911a",
      "title": "Prism Stone - Magical Energy Stone"
    },
    "generator": "Sketchfab-6.45.0",
    "version": "2.0"
  },
  "bufferViews": [
    {
      "buffer": 0,
      "byteLength": 336,
      "byteOffset": 0,
      "name": "floatBufferViews",
      "target": 34963
    },
    {
      "buffer": 0,
      "byteLength": 512,
      "byteOffset": 336,
      "byteStride": 8,
      "name": "floatBufferViews",
      "target": 34962
    },
    {
      "buffer": 0,
      "byteLength": 1536,
      "byteOffset": 848,
      "byteStride": 12,
      "name": "floatBufferViews",
      "target": 34962
    },
    {
      "buffer": 0,
      "byteLength": 1024,
      "byteOffset": 2384,
      "byteStride": 16,
      "name": "floatBufferViews",
      "target": 34962
    }
  ],
  "buffers": [
    {
      "byteLength": 3408,
      "uri": "scene.bin"
    }
  ],
  "images": [
    {
      "uri": "textures/pasted__Pyramid2_baseColor.jpeg"
    },
    {
      "uri": "textures/pasted__Pyramid2_metallicRoughness.png"
    },
    {
      "uri": "textures/pasted__Pyramid2_emissive.jpeg"
    },
    {
      "uri": "textures/pasted__Pyramid2_normal.png"
    }
  ],
  "materials": [
    {
      "doubleSided": true,
      "emissiveFactor": [
        1,
        1,
        1
      ],
      "emissiveTexture": {
        "index": 2,
        "texCoord": 0
      },
      "name": "pasted__Pyramid2",
      "normalTexture": {
        "index": 3,
        "scale": 1,
        "texCoord": 0
      },
      "occlusionTexture": {
        "index": 1,
        "strength": 1,
        "texCoord": 0
      },
      "pbrMetallicRoughness": {
        "baseColorFactor": [
          1,
          1,
          1,
          1
        ],
        "baseColorTexture": {
          "index": 0,
          "texCoord": 0
        },
        "metallicFactor": 0.26391006097560976,
        "metallicRoughnessTexture": {
          "index": 1,
          "texCoord": 0
        },
        "roughnessFactor": 0.79439786585365857
      }
    }
  ],
  "meshes": [
    {
      "name": "pasted__Pyramid1_pasted__Pyramid2_0",
      "primitives": [
        {
          "attributes": {
            "NORMAL": 1,
            "POSITION": 0,
            "TANGENT": 2,
            "TEXCOORD_0": 3
          },
          "indices": 4,
          "material": 0,
          "mode": 4
        }
      ]
    }
  ],
  "nodes": [
    {
      "children": [
        1
      ],
      "name": "RootNode (gltf orientation matrix)",
      "rotation": [
        -0.70710678118654746,
        -0,
        -0,
        0.70710678118654757
      ]
    },
    {
      "children": [
        2
      ],
      "name": "RootNode (model correction matrix)"
    },
    {
      "children": [
        3
      ],
      "matrix": [
        1,
        0,
        0,
        0,
        0,
        0,
        1,
        0,
        0,
        -1,
        0,
        0,
        0,
        0,
        0,
        1
      ],
      "name": "7191993ad027485d8a67db7590234f9c.fbx"
    },
    {
      "children": [
        4
      ],
      "name": "RootNode"
    },
    {
      "children": [
        5
      ],
      "matrix": [
        1,
        0,
        0,
        0,
        0,
        1,
        0,
        0,
        0,
        0,
        1,
        0,
        0,
        -12.071660041809082,
        0,
        1
      ],
      "name": "group"
    },
    {
      "children": [
        6
      ],
      "matrix": [
        1.3989454507827759,
        0,
        0,
        0,
        0,
        1.3989454507827759,
        0,
        0,
        0,
        0,
        1.3989454507827759,
        0,
        0,
        0,
        0,
        1
      ],
      "name": "pasted__Room"
    },
    {
      "children": [
        7
      ],
      "matrix": [
        1,
        0,
        0,
        0,
        0,
        1,
        0,
        0,
        0,
        0,
        1,
        0,
        0,
        0.47102853655815125,
        0,
        1
      ],
      "name": "pasted__Pyramid1"
    },
    {
      "mesh": 0,
      "name": "pasted__Pyramid1_pasted__Pyramid2_0"
    }
  ],
  "samplers": [
    {
      "magFilter": 9729,
      "minFilter": 9987,
      "wrapS": 10497,
      "wrapT": 10497
    }
  ],
  "scene": 0,
  "scenes": [
    {
      "name": "OSG_Scene",
      "nodes": [
        0
      ]
    }
  ],
  "textures": [
    {
      "sampler": 0,
      "source": 0
    },
    {
      "sampler": 0,
      "source": 1
    },
    {
      "sampler": 0,
      "source": 2
    },
    {
      "sampler": 0,
      "source": 3
    }
  ]
}

